<?xml version="1.0" encoding="UTF-8"?><!DOCTYPE svg PUBLIC "-//W3C//DTD SVG 1.1//EN" "http://www.w3.org/Graphics/SVG/1.1/DTD/svg11.dtd"><svg xmlns="http://www.w3.org/2000/svg" xmlns:xlink="http://www.w3.org/1999/xlink"><defs><clipPath id="clip0"><path fill="#fff" d="M0 0h202v59H0z"/></clipPath><clipPath id="clip0"><path fill="#fff" d="M0 0h128v24H0z"/></clipPath><clipPath id="clip0"><path fill="#fff" d="M0 0h33.32v37.61H0z"/></clipPath><clipPath id="clip1"><path fill="#fff" transform="translate(90 13)" d="M0 0h101v18H0z"/></clipPath><clipPath id="clip0"><path fill="#fff" d="M0 0h174v51.683H0z"/></clipPath><clipPath id="clip0"><path fill="#fff" d="M0 0h20v20H0z"/></clipPath></defs><symbol id="icon-cat-pro" viewBox="0 0 134 56"><path d="M123.1 5.8c1.2-1.9 2.7-3.4 4.5-4.6 1-.7 1.6-.7 2.2.6.8 1.9 1.5 3.9.9 6-.2.8-.1 1.4.4 2.1.6.8 1.1 1.6 1.6 2.3 1.3 1.9 1.8 3.9.9 6.2-.4 1-.4 2-.2 3.1.2 1 .2 2 0 3-.3 1.6-1.1 2.7-2.7 3.2-1.3.3-2.4.9-3.2 2-.2.3-.5.5-.9.5-1.2.2-4.2-2.5-4.2-3.7v-.6c.1-3.6-.1-3.9-3.4-5.4-.7-.3-1.3-.6-1.8-1.2-.6-.8-1.4-.7-2.3-.4-.8.4-1.4.9-1.3 1.9.3 2.4.4 4.8.3 7.3 0 .3.1.6.2.8 3.1 4.5 4.3 9.8 5.8 14.9 1.2 3.9 3.4 6 7.4 6.3.6 0 1.3.2 1.9.3 1.8.3 2.9 1.5 3.4 3.2.7 2.1.3 2.6-1.8 2.6h-6.5c-.9 0-1.6-.2-2.3-.8-1-1-2.2-1.4-3.4-2-1.3-.6-2.6-1.3-3.4-2.6-1.1-1.7-2.6-3.1-4-4.5-2.8-2.9-5.8-5.7-8.4-8.7-1.9-2.2-3.2-4.6-3.2-7.6 0-.9-.2-1.3-1.2-.9-.3.2-.7.3-1 .3-2.8 0-4.2 1.7-5.2 4.2-.9 2.1-2.1 4.1-3.2 6.2-.5 1.1-1 2.6-1 4.2 0 2.4.6 3.2 2.8 4 1.4.5 2.7 1 3.4 2.4.8 1.6.6 2-1.1 2.1h-6.8c-.9 0-1.5-.3-1.9-1.1l-1.8-3c-1-1.7-1.4-3.4-.7-5.4.6-1.7.3-3.6.1-5.3-.4-2.6 0-4.9 1.7-7 .6-.7.6-1-.4-1.2-4.1-.8-8-2.3-11.8-4.1 0 0-.1 0-.1-.1-3.2-1.2-3.8-1-4.7 2.3-.8 2.8-1.6 5.6-2.2 8.5-.7 3.2.1 6.2 1.1 9.2.4 1.2 1.6 1.1 2.5 1.4 2 .6 3.7 1.4 4.5 3.5.7 1.6.6 1.8-1.1 1.8-1.7 0-3.4-.1-5.2 0-1.6.1-2.8-.5-4.2-1.4-4.8-3.2-6.2-8.1-6.6-13.4-.2-3.3-2-5.9-4.1-8.4-.4-.5-.8-.7-1.4-.3-2.1 1.3-4.5 2.1-6.7 3-4.8 1.8-9 4.6-12.2 8.8-1.2 1.5-1.9 3.2-2.2 5.1-.3 1.8.2 2.6 2 3.1 1.9.6 2.7 1.5 2.9 3.4.1.8-.2 1.2-1 1.2h-8.1c-.6 0-1-.4-1.3-.8-1.3-1.6-1.9-3.5-1.9-5.5-.1-3.5.3-6.9.9-10.3.4-2.1 1.4-3.8 3.4-4.8 5.9-2.8 9-8.1 11.8-13.6.6-1.1.1-1.3-.9-1.2-2.9.3-5.4 1.6-7.7 3.2-3 2.1-5.7 4.6-8.3 7.1-2.9 2.7-6.2 4.6-10.3 4.9C3.1 32.5-.3 28.4 0 21.8c.1-2.3.9-4.4 2.4-6.1 1.2-1.3 2.6-2 4.5-1.5 1.5.4 1.9 1.2 1.3 2.7-.3.6-.7 1.1-1 1.7-.4.6-.8 1.3-1 2-1.1 3 .4 5.1 3.5 5.4 3.3.3 6-1.1 8.5-3.1 3-2.4 5.7-5.2 8-8.3 3.7-4.8 8.5-7.3 14.4-8.1 2.3-.3 4.3-1.3 6.5-1.9 4.1-1.2 8.3-1.9 12.7-1.8 2 .1 3.9-.3 5.8-1.1 4.9-2 10-2 15.1-1 4 .8 8 1.8 11.9 2.8 2.2.5 4.7.3 7-.2 4.4-1 8.9-1.9 13.4-2 3-.1 5.9.4 8.6 1.7 2 .9 2 .9 1.5 2.8z"/></symbol><symbol id="icon-cat-slim" viewBox="0 0 70 97"><path d="M54.8 0h-.4c-.7.4-1.1.9-1.4 1.6-.6 1.1-1 2.3-1.3 3.4-.2.8-.7 1.2-1.5 1.3-2.3.4-4 1.7-5.2 3.7-.7 1.3-1.3 2.6-1.8 3.9-1.4 3.7-2.5 7.5-3.8 11.2-.7 1.9-.8 1.9-2.7 1.9-2.3 0-2.1-.4-2.1 2.1 0 .8.2 1.2 1.1 1.2.3 0 .7-.1.8.2.1.3-.2.5-.4.7-1.2 1.3-2.7 2-4.3 2.4-1.9.5-3.8.9-5.7 1.5-4.7 1.6-9.1 3.8-12.6 7.6-2.1 2.3-3.5 5-4.7 7.8-3.8 8.7-5.6 17.8-7 27-.6 4.3-1.1 8.6-1.5 13C.2 92.7 0 94.8 0 97h33.3c.1-.5-.1-.9-.2-1.3-.7-1.8-2.1-2.7-3.8-3.1-.7-.2-.8-.4-.4-.9.7-.9 1.2-2 1.6-3.1 1.6-4.8 2.3-9.8 3.1-14.8.6-3.8 1.5-7.4 3.4-10.8 1.5-2.5 3.3-4.6 5.6-6.4.8-.6.9-.6 1 .4.1.7.1 1.4.2 2.2.3 4.7.3 9.5-.2 14.2-.3 3.7-.5 7.4-.2 11 .4 4.3 1.2 8.4 2.2 12.6h13.3c-.3-2.2-2.1-4-4.2-4.4-1.3-.2-2.5-.1-3.8.2-.6.1-.8 0-.9-.6-.4-5.3-.1-10.6 1-15.8 1.3-6 2.4-12.1 3.1-18.2.3-2.5 1-4.8 2.3-7 1.2-2.1 2.2-4.3 3.4-6.5.9-1.7 1.1-3.4.4-5.2-.3-.7-.5-1.4-.9-2.1-1-2-2-3.9-2.9-5.9-.5-1-.4-1.1.7-1.1 1.6 0 1.6 0 1.7-1.6v-.7c0-.7-.3-1.1-1-1h-1.5c-.7 0-.9-.3-.7-1 .6-2.3 2.8-4.1 5.1-4.4 2.2-.3 4.4 0 6.6.4.6.1 1 0 1.3-.6.4-1 .8-2 1.3-3 .2-.4.2-.8-.1-1.1-3.2-4.2-6.7-8-11.4-10.4-.5-.3-.8-.6-.9-1.1-.3-1.4-.7-2.8-1.3-4.2-.3-.7-.6-1.3-1.4-1.7z"/></symbol><symbol id="icon-close" viewBox="0 0 18 18"><path d="M18 1.3L16.7 0 9 7.7 1.3 0 0 1.3 7.7 9 0 16.7 1.3 18 9 10.3l7.7 7.7 1.3-1.3L10.3 9z"/></symbol><symbol id="icon-fb"><path d="M16.5 1.833h-2.75a4.63 4.63 0 00-3.24 1.317 4.45 4.45 0 00-1.343 3.177v2.697h-2.75v3.595h2.75v7.191h3.666v-7.19h2.75l.917-3.596h-3.667V6.327a.89.89 0 01.269-.635.926.926 0 01.648-.263h2.75V1.833z" stroke-width="1.1" stroke-linecap="round" stroke-linejoin="round"/></symbol><symbol id="icon-gift"><path d="M64.016 34.713H14.03c-1.754 0-3.182-1.418-3.182-3.16v-9.469c0-1.742 1.428-3.16 3.182-3.16h49.984c1.754 0 3.18 1.418 3.18 3.16v9.47c0 1.741-1.426 3.159-3.18 3.159zM14.03 21.346a.751.751 0 00-.744.738v9.47c0 .406.334.737.744.737h49.984a.74.74 0 00.743-.738v-9.469a.75.75 0 00-.743-.738H14.03z" fill="#fff"/><path d="M57.045 67.15H20.999c-3.377 0-6.125-2.73-6.125-6.087V33.502c0-.669.546-1.211 1.219-1.211s1.219.542 1.219 1.21v27.562c0 2.02 1.654 3.664 3.687 3.664h36.046c2.032 0 3.686-1.644 3.686-3.664V33.502c0-.669.546-1.211 1.219-1.211.672 0 1.218.542 1.218 1.21v27.562c0 3.356-2.747 6.086-6.123 6.086z" fill="#fff"/><path d="M39.023 67.15a1.215 1.215 0 01-1.22-1.212V33.502c0-.669.547-1.211 1.22-1.211.672 0 1.218.542 1.218 1.21v32.436c0 .67-.545 1.212-1.218 1.212zM23.811 21.342c-3.814-2.054-5.238-6.809-3.173-10.6 2.064-3.79 6.848-5.205 10.665-3.155 5.814 3.13 8.954 11.86 9.084 12.23l-2.3.804c-.029-.082-2.961-8.221-7.944-10.903-2.635-1.416-5.937-.439-7.36 2.177-1.426 2.617-.444 5.9 2.19 7.317l-1.162 2.13z" fill="#fff"/><path d="M54.231 21.342l-1.16-2.13a5.376 5.376 0 002.622-3.208 5.327 5.327 0 00-.431-4.109 5.382 5.382 0 00-3.226-2.604 5.426 5.426 0 00-4.134.427c-4.982 2.681-7.915 10.82-7.944 10.902l-2.3-.803c.131-.37 3.27-9.1 9.084-12.23a7.859 7.859 0 015.99-.617 7.8 7.8 0 014.674 3.772 7.72 7.72 0 01.623 5.952 7.788 7.788 0 01-3.798 4.648zm7.719 29.59H16.093a1.215 1.215 0 01-1.219-1.211c0-.669.546-1.211 1.219-1.211H61.95c.672 0 1.218.542 1.218 1.21 0 .67-.545 1.212-1.218 1.212z" fill="#fff"/></symbol><symbol id="icon-htmlacademy"><path d="M13.643.016L13.5 0 0 1.407v24.606L13.5 34 27 26.013V1.407L13.643.016zm11.591 25L13.5 31.956 1.766 25.015V14.93l11.685 6.916.02 1.253-8.017-4.743-.011 1.225 8.046 4.809.02 1.286-8.045-4.758-.01 1.226L13.5 26.95l8.124-4.833V16.91l3.62-2.15-.01 10.256zm0-11.564l-3.22 1.88-1.482.875-7.065-4.187-.011 1.225 6.04 3.573-.053.031-.13.076-.86.492-4.986-2.948-.011 1.225 3.936 2.328-.933.61-.021.012-2.971-1.742-.011 1.225 1.947 1.135-1.988 1.186-11.618-6.872 11.638-6.958 11.8 6.834zm0-1.225L13.44 5.31 1.766 12.22V2.99L13.5 1.764 25.234 2.99v9.237z"/></symbol><symbol id="icon-insta"><path d="M7.984.063c1.334 0 2.422.015 3.266.046.719.032 1.36.157 1.922.375a3.968 3.968 0 012.312 2.313c.22.562.344 1.203.375 1.922.032.843.047 1.932.047 3.265 0 1.334-.015 2.422-.047 3.266-.03.719-.156 1.36-.375 1.922a3.987 3.987 0 01-.906 1.406 3.987 3.987 0 01-1.406.906c-.563.22-1.203.344-1.922.375-.844.032-1.932.047-3.266.047a91.88 91.88 0 01-3.265-.047c-.719-.03-1.36-.156-1.922-.375a3.987 3.987 0 01-1.406-.906 3.987 3.987 0 01-.907-1.406C.266 12.609.141 11.969.11 11.25a91.735 91.735 0 01-.046-3.266c0-1.333.015-2.421.046-3.265.032-.719.157-1.36.375-1.922a3.98 3.98 0 01.907-1.406A3.987 3.987 0 012.797.484C3.359.266 4 .141 4.719.11A91.733 91.733 0 017.984.063zm0 1.03c-1.385 0-2.515.016-3.39.048-.563.02-1.084.12-1.563.296a2.853 2.853 0 00-1.594 1.594 5 5 0 00-.296 1.563 98.83 98.83 0 00-.047 3.39c0 1.386.015 2.516.047 3.391.02.563.12 1.083.296 1.563.313.75.844 1.28 1.594 1.593.48.177 1 .276 1.563.297.875.031 2.005.047 3.39.047 1.386 0 2.516-.016 3.391-.047a5.015 5.015 0 001.563-.297 2.852 2.852 0 001.593-1.594c.177-.479.276-1 .297-1.562.031-.875.047-2.005.047-3.39 0-1.386-.016-2.516-.047-3.391a5.015 5.015 0 00-.297-1.563 2.853 2.853 0 00-1.594-1.594c-.479-.177-1-.276-1.562-.296a98.803 98.803 0 00-3.39-.047zm0 10.063c.875 0 1.623-.31 2.243-.93.62-.62.93-1.367.93-2.242s-.31-1.622-.93-2.242a3.056 3.056 0 00-2.243-.93c-.875 0-1.622.31-2.242.93-.62.62-.93 1.367-.93 2.242s.31 1.623.93 2.243c.62.62 1.367.93 2.242.93zm0-7.234c1.125 0 2.084.396 2.875 1.187.792.792 1.188 1.75 1.188 2.875s-.396 2.084-1.188 2.875c-.791.792-1.75 1.188-2.875 1.188s-2.083-.396-2.875-1.188c-.791-.791-1.187-1.75-1.187-2.875s.396-2.083 1.187-2.875c.792-.791 1.75-1.187 2.875-1.187zm5.188-.156c0 .26-.094.481-.281.664a.949.949 0 01-.688.273.904.904 0 01-.664-.273.904.904 0 01-.273-.664c0-.271.09-.5.273-.688a.891.891 0 01.664-.281.93.93 0 01.68.289.93.93 0 01.289.68z"/></symbol><symbol id="icon-logo_desktop"><g clip-path="url(#clip0)"><path d="M59.883 23.806A25.432 25.432 0 0051.83 13.43a25.725 25.725 0 00-12.193-5.02 25.803 25.803 0 00-13.093 1.671 25.59 25.59 0 00-10.515 7.916 25.296 25.296 0 00-5.144 12.06 25.212 25.212 0 001.595 12.997 25.423 25.423 0 007.909 10.484 25.719 25.719 0 0012.122 5.184 113.04 113.04 0 01-1.69-6.794 32.41 32.41 0 004.76 2.529s.12 2.142.28 4.533c1.789.03 3.575-.126 5.33-.466a2.104 2.104 0 010-.754c.29-1.855 1.09-5.198 1.25-7.35a15.114 15.114 0 002.9-3.68l-.06.436c-.55 4.226-1.7 8.74-2.4 9.989a5.536 5.536 0 01-.83 1.14 25.73 25.73 0 009.941-4.727 25.48 25.48 0 007.021-8.43 25.252 25.252 0 00.87-21.341zm-1.47 3.76c-.44.426-1.35.714-1.5-.576a34.09 34.09 0 01-.19-2.192s-1.93-3.402-2.65-3.442c-.72-.04-5.831 3.442-7.181 4.96-1.17 1.28-1.4 1.19-1.4 3.442 0 1.696.22 8.104.1 13.004l-8.15 2.153a64.524 64.524 0 01-7.801 1.706l-1-5.783h-.14l-2.57-13.064s-3.81-1.428-5.21-1.815a3.788 3.788 0 00-4 .625 5.032 5.032 0 00-1.285 1.722 4.995 4.995 0 00-.446 2.097c.212.46.373.943.48 1.438.05.476-1.2.426-2 .426s-.92-1.428-.29-3.104c.492-1.29 1.1-2.531 1.82-3.71a11.776 11.776 0 012.07-2.867s.14-.337 1.25-.238c1.11.1 7.28.427 7.28.427l.05-2.252a143.93 143.93 0 0120.242-1.33v1.816a22.671 22.671 0 018.14-1.984.916.916 0 01.77.387c.34.427 2.41 2.976 2.65 3.343a27.73 27.73 0 011.83 2.976 6.167 6.167 0 01-.87 1.825v.01z" fill="#FDC305"/><path d="M56.463 21.495c.47.595.88 1.121 1 1.28a27.74 27.74 0 011.83 2.976c-.19.63-.48 1.226-.86 1.765-.44.427-1.35.714-1.5-.575-.15-1.29-.21-2.143-.21-2.143s-1.93-3.402-2.65-3.442c-.72-.04-5.83 3.442-7.18 4.96-1.17 1.28-1.4 1.19-1.4 3.442 0 1.488.17 6.596.13 11.14 1.81.198 4.47.694 5.27 1.864 0 0-.29-7.122 7.81-3.392 0 0 .28-9.711 11.46-7.221a43.671 43.671 0 00-13.7-10.654zm-10.531-2.301a89.015 89.015 0 00-1.4-16.397s-.15-1.29-.87-.238a14.057 14.057 0 00-1.2 3.968 71.461 71.461 0 00-12.82.337c-.82-2.728-2.22-3.968-2.89-3.64-.67.327-.75 3.253-.75 3.253l-.33 14.046a143.942 143.942 0 0120.26-1.33z" fill="#F06351"/><path d="M45.352 46.74c.13-1.062.2-2.47.24-4.028l-8.15 2.153a64.434 64.434 0 01-7.8 1.756l1.11 4.96c0 .108 0 .218.07.327a32.398 32.398 0 004.76 2.53 42.484 42.484 0 006.88-4.098v.06a15.115 15.115 0 002.89-3.66z" fill="#E55645"/><path d="M32.002 16.09c-.05-.1 1 .674 1.41.912.41.238.61.416.61.585 0 .169-.26.337-.62.337s-.92-.119-1-.258c-.08-.139.6 0 .94 0h.29a8.052 8.052 0 01-1.63-1.577zm7.5.108s-1 1.27-1.09 1.33c-.09.059-.17.337.19.287a8.146 8.146 0 001.22-.278c.11-.06.07-.198-.12-.178-.19.02-.68.05-1 .109l.85-1.26s.03-.119-.05-.01zm-3.14 6.061a2.293 2.293 0 001.09-.992c.28-.655 0-.903-.44-.992a2.46 2.46 0 00-1.75.337c-.39.367-.34.724 0 .992a5.17 5.17 0 001.1.655z" fill="#000"/><path d="M36.002 23.509a2.036 2.036 0 01-.46.595c-.285.227-.635.36-1 .377a2.193 2.193 0 01-1.54-.437 1.995 1.995 0 01-.53-.446 1.002 1.002 0 00-.36-.248s.75 4.077 2.57 4.731c1.82.655 2.16-.753 2.21-1.13a5.55 5.55 0 00-.82-3.214c0-.298-.02-.1-.07-.228z" fill="#F06351"/><path d="M34.301 24.64a3.518 3.518 0 01-2.35-1.419.148.148 0 010-.198.14.14 0 01.155-.031.14.14 0 01.045.03 3.209 3.209 0 002.11 1.3 2.121 2.121 0 001.64-.992l.14-.188.1.218s.38.754 1 .794c.62.04 1.06-.417 1.63-1.28a.144.144 0 01.2-.04.143.143 0 01.04.199c-.666.972-1.296 1.438-1.89 1.398a1.557 1.557 0 01-1.12-.724 2.254 2.254 0 01-1.7.933z" fill="#000"/><path d="M36.262 37.99c2.07 0 3.75-1.665 3.75-3.719s-1.68-3.72-3.75-3.72c-2.072 0-3.75 1.666-3.75 3.72 0 2.054 1.678 3.72 3.75 3.72z" fill="#FDC305"/><path d="M41.232 31.246l-3.13 1.3 1.15-5.585-7.5 9.68 3.13-1.298-1.15 5.594 7.5-9.691zm-7.39 3.799l4.16-5.366-.81 3.967 2-.813-4.19 5.376.81-3.968-1.97.804zm-1.401-1.458c.62 0 1.12-.498 1.12-1.111 0-.614-.5-1.111-1.12-1.111-.618 0-1.12.497-1.12 1.11 0 .614.502 1.112 1.12 1.112zm6.521 4.027c.436 0 .79-.35.79-.784a.787.787 0 00-.79-.783c-.436 0-.79.35-.79.783 0 .433.354.784.79.784zm.96-2.152a.35.35 0 00.35-.348.349.349 0 00-.35-.347.349.349 0 00-.35.347.35.35 0 00.35.348z" fill="#111"/><path d="M45.882 20.99a57.219 57.219 0 00-5.09 5.167 31.79 31.79 0 01-5.31 4.86c-.22-.525-1.63-1.507-1.63-1.507s-3.14-2.133-5.2-3.81a31.78 31.78 0 01-3.14-2.975l-2-.109a22.62 22.62 0 0012 8.769c.86-.14 3.28-1.855 5.09-3.254a57.44 57.44 0 006-5.862 6.314 6.314 0 001.14-1.984c-1.14.377-1.86.704-1.86.704z" fill="#F06351"/><path d="M65.223 3.472l-8.46 9.364-1.22-1.974L63.693 0l1.53 3.472zm-2.57 13.648l5.54-4.076-.78-3.71-5.4 4.771.64 3.016zm-2.73 31.852l6.13 3.154 3.01-2.321-6.69-2.728-2.45 1.895zM1.95 5.922l3.07-3.333 9.29 8.927-1.22 2.262L1.95 5.922zm5.43 10.227l-4.7-3.105-2.4 3.839 5.15 2.38 1.95-3.114zm6.53 35.977l-4.55 3.323L12.16 59l4.02-3.988-2.27-2.886z" fill="#FDC305"/><path d="M25.931 27.774s-3.81-1.428-5.21-1.815a3.788 3.788 0 00-4 .625 5.032 5.032 0 00-1.285 1.722 4.994 4.994 0 00-.445 2.097c.211.46.372.943.48 1.438.05.476-1.2.426-2 .426s-.92-1.428-.29-3.104c.491-1.29 1.1-2.531 1.82-3.71C9.55 28.27 0 34.777 0 34.777a46.196 46.196 0 018.19.238c5.25.526 5 4.632 5 4.632a38.924 38.924 0 015.63-1.1c2.121-.14 2.271 2.102 2.271 2.102l.53 3.83a18.248 18.248 0 012.65-2.342 6.095 6.095 0 014.38-1.29l-2.72-13.073z" fill="#F06351"/><path d="M85.664 41.661a8.174 8.174 0 01-1.4-5.148v-7.44a8.301 8.301 0 011.38-5.197c.927-1.184 2.51-1.773 4.75-1.766 2.24.007 3.757.526 4.55 1.558a6.628 6.628 0 011.33 4.453v1.746h-4.14v-1.895a9.84 9.84 0 00-.13-1.488 1.66 1.66 0 00-.47-.942 1.565 1.565 0 00-1.15-.367 1.47 1.47 0 00-.868.137 1.455 1.455 0 00-.632.607 5.386 5.386 0 00-.34 2.182v9.444a4.707 4.707 0 00.39 2.182 1.476 1.476 0 001.45.724 1.354 1.354 0 001.4-.734 5.75 5.75 0 00.31-2.172V35.56h4.14v1.716a7.147 7.147 0 01-1.23 4.572c-.88 1.092-2.4 1.627-4.56 1.627-2.16 0-3.85-.595-4.78-1.815zm16.251-19.263h4.74l4 20.83h-3.94l-.71-4.602h-3.32l-.8 4.573h-4l4.03-20.801zm3.65 13.61l-1.26-8.373-1.25 8.372h2.51zm8.16-10.476h-3.24v-3.134h10.72v3.134h-3.2V43.2h-4.29l.01-17.667z" fill="#111"/><path d="M129.616 22.398h8.13v2.162h-5.2v6.874h4.22v2.054h-4.22v7.627h5.25V43.2h-8.18V22.398zm10.541 0h2l6 13.817V22.398h2.44v20.83h-1.87l-6-14.204v14.175h-2.48l-.09-20.801zm13.671 0h8.12v2.162h-5.2v6.874h4.26v2.054h-4.22v7.627h5.22V43.2h-8.18V22.398zm10.53 0h4.22a7.042 7.042 0 014.67 1.3c1 .862 1.49 2.27 1.49 4.225 0 2.645-.863 4.262-2.59 4.85l3 10.426h-2.84l-2.75-9.761h-2.27v9.76h-2.93v-20.8zm4 8.927a3.891 3.891 0 002.7-.754 3.536 3.536 0 00.82-2.688 5.76 5.76 0 00-.29-1.984 1.883 1.883 0 00-1-1.071 4.794 4.794 0 00-2.05-.347h-1.29v6.884l1.11-.04zm10.321 10.336a9.113 9.113 0 01-1.27-5.307v-6.943a13.27 13.27 0 01.5-3.968 4.443 4.443 0 011.74-2.39 5.947 5.947 0 013.36-.834 5.298 5.298 0 014.18 1.468 6.904 6.904 0 011.28 4.593v.774h-2.75v-.645a11.309 11.309 0 00-.18-2.301 1.98 1.98 0 00-.76-1.22 3.02 3.02 0 00-1.72-.407 2.534 2.534 0 00-1.81.555 2.53 2.53 0 00-.77 1.468 14.484 14.484 0 00-.17 2.47v7.727a7.39 7.39 0 00.59 3.432 2.85 2.85 0 004.47-.09 7.994 7.994 0 00.61-3.62v-1.467h-2.66v-2.054h5.3V43.2h-1.81l-.29-2.391a3.661 3.661 0 01-1.4 1.969 3.71 3.71 0 01-2.33.68 4.698 4.698 0 01-2.288-.375 4.656 4.656 0 01-1.822-1.42zm16.02-5.803l-4.53-13.46h2.72l3.21 10.038 3.16-10.038h2.75l-4.5 13.46v7.34h-2.8l-.01-7.34z" fill="#444"/></g></symbol><symbol id="icon-logo_footer"><g clip-path="url(#clip0)" fill="#111"><path d="M1.603 22.051A9.498 9.498 0 010 16.308V7.795a9.63 9.63 0 011.502-5.846C2.604.615 4.307 0 6.811 0s4.106.615 5.108 1.744a7.487 7.487 0 011.502 5.025v2.052H8.513V6.46a5.157 5.157 0 00-.3-2.05 1.463 1.463 0 00-.579-.63 1.415 1.415 0 00-.823-.191c-.701 0-1.202.205-1.403.718a6.774 6.774 0 00-.3 2.256v10.974a4.334 4.334 0 00.4 2.154c.2.513.702.718 1.403.718.7 0 1.102-.205 1.302-.718.228-.693.33-1.423.3-2.154v-2.461h4.908v2.051a7.98 7.98 0 01-1.502 5.128c-1.002 1.231-2.705 1.847-5.108 1.847-2.404-.103-4.207-.718-5.208-2.052zM19.33.308h5.71l4.206 23.384h-4.607l-.802-4.923h-3.305l-.801 4.923h-4.708L19.33.308zm4.107 15.384l-1.202-9.128-1.202 9.128h2.404zm9.314-11.487h-3.405V.308h11.918v3.794H37.86v19.59h-5.108V4.205zM50.379.308h8.814v2.461h-5.71v7.692h4.608v2.36h-4.607v8.615h5.709v2.359h-8.914V.308h.1zm11.418 0H64l6.51 15.487V.308h2.604v23.384h-2.003l-6.61-16v16h-2.704V.308zm14.322 0h8.814v2.461h-5.71v7.692h4.608v2.36h-4.607v8.615h5.709v2.359h-8.814V.308zm11.418 0h4.607a7.874 7.874 0 015.108 1.436c1.102.923 1.603 2.564 1.603 4.717 0 2.975-.902 4.821-2.805 5.436l3.205 11.693H96.15l-3.004-10.975h-2.504V23.59h-3.205V.308h.1zm4.407 10.05a4.301 4.301 0 002.904-.82c.601-.512.902-1.538.902-3.077a6.775 6.775 0 00-.3-2.256 2.583 2.583 0 00-1.103-1.23 4.473 4.473 0 00-2.203-.411h-1.402v7.692h1.202v.103zm10.917 11.591A10.575 10.575 0 01101.458 16V8.205c-.024-1.486.144-2.97.501-4.41a5.204 5.204 0 011.903-2.667 6.422 6.422 0 013.706-.923c2.103 0 3.606.513 4.507 1.641a7.982 7.982 0 011.402 5.129v.82h-3.004v-.718a15.503 15.503 0 00-.201-2.564 2.056 2.056 0 00-.801-1.333 3.04 3.04 0 00-1.903-.513 2.955 2.955 0 00-2.003.615 2.349 2.349 0 00-.801 1.641 19.734 19.734 0 00-.201 2.77v8.717a9.527 9.527 0 00.601 3.898c.401.82 1.202 1.128 2.404 1.128a2.38 2.38 0 001.384-.243 2.457 2.457 0 001.02-.988 9.634 9.634 0 00.701-4.102v-1.641h-2.905v-2.36h5.809v11.59h-2.003l-.3-2.666a4.186 4.186 0 01-1.554 2.21 4.016 4.016 0 01-2.553.764 4.909 4.909 0 01-2.406-.47 5.037 5.037 0 01-1.9-1.581zm17.127-6.462L115.08.41h3.005l3.505 11.282L124.995.41H128l-4.908 15.077v8.205h-3.004v-8.205h-.1z"/></g></symbol><symbol id="icon-logo_mobile"><g clip-path="url(#clip0)"><path d="M6.07 20.72v-2.26a143.265 143.265 0 0120.17-1.33c0 .6 0 1.21-.06 1.82a25.518 25.518 0 016-1.82A16.67 16.67 0 00.19 20.39l5.88.33zm21.17 3.51c-1.16 1.28-1.39 1.2-1.39 3.45v9.18A16.64 16.64 0 0033.32 23a17.302 17.302 0 00-.32-3.1 33.109 33.109 0 00-5.76 4.33zM6.36 25.72s-3.79-1.44-5.19-1.83A8.541 8.541 0 000 23.61a16.65 16.65 0 008.68 14L6.36 25.72z" fill="#FDC305"/><path d="M26.29 17.12A89.799 89.799 0 0024.89.65S24.75-.64 24 .41a14.22 14.22 0 00-1.2 3.94 70.34 70.34 0 00-12.77.34C9.24 2 7.85.75 7.18 1c-.67.25-.72 3.31-.72 3.31l-.33 14.1a143.211 143.211 0 0120.16-1.29z" fill="#F06351"/><path d="M12.41 14c0-.09 1 .68 1.41.92.41.24.61.42.61.59 0 .17-.27.34-.63.34s-.91-.12-1-.27h1.23A8.34 8.34 0 0112.41 14zm7.48.11l-1.09 1.33c0 .06-.17.35.18.3a7.351 7.351 0 001.22-.29c.11 0 .07-.19-.11-.17-.18.02-.69.05-1 .11l.84-1.26s.07-.13-.04-.02zm-3.14 6.09a2.3 2.3 0 001.09-1c.28-.65 0-.91-.44-1a2.43 2.43 0 00-1.74.34c-.39.36-.34.72-.05 1a5.34 5.34 0 001.14.66z" fill="#000"/><path d="M16.35 21.45a1.92 1.92 0 01-.46.6 1.73 1.73 0 01-1 .38 2.15 2.15 0 01-1.47-.43 2.3 2.3 0 01-.53-.44c-.1-.11-.223-.2-.36-.26 0 0 .75 4.1 2.57 4.75 1.82.65 2.14-.75 2.2-1.13a5.61 5.61 0 00-.82-3.23c-.02-.31-.03-.11-.13-.24z" fill="#F06351"/><path d="M14.71 22.59a3.44 3.44 0 01-2.361-1.466.14.14 0 01.031-.154.14.14 0 01.2 0 3.26 3.26 0 002.11 1.3 2.09 2.09 0 001.63-1l.14-.19.1.21s.37.76 1 .8c.63.04 1.05-.41 1.61-1.28a.14.14 0 01.2 0 .15.15 0 01.05.2c-.64 1-1.27 1.44-1.88 1.4a1.549 1.549 0 01-1.12-.76 2.26 2.26 0 01-1.71.94z" fill="#000"/><path d="M26.24 18.92a58.634 58.634 0 00-5.07 5.19A31.633 31.633 0 0115.88 29c-.22-.53-1.62-1.51-1.62-1.51s-3.13-2.14-5.18-3.82a34.139 34.139 0 01-3.13-3l-2-.11a22.57 22.57 0 0012 8.8c.86-.14 3.27-1.86 5.07-3.26a58.13 58.13 0 005.94-5.89 6.15 6.15 0 001.14-2c-1.1.39-1.86.71-1.86.71z" fill="#F06351"/></g><g clip-path="url(#clip1)" fill="#111"><path d="M91.264 29.538A6.865 6.865 0 0190 25.231v-6.385a6.95 6.95 0 011.186-4.385c.869-1 2.212-1.461 4.188-1.461 1.976 0 3.24.461 4.03 1.308a5.418 5.418 0 011.186 3.769v1.538h-3.873v-1.769a3.691 3.691 0 00-.237-1.538 1.12 1.12 0 00-.456-.473 1.164 1.164 0 00-.65-.143c-.553 0-.948.154-1.106.539a4.846 4.846 0 00-.237 1.692v8.23a3.112 3.112 0 00.316 1.616c.158.385.553.539 1.106.539s.87-.154 1.027-.539c.18-.52.26-1.067.237-1.615v-1.846h3.873v1.538a5.776 5.776 0 01-1.186 3.846c-.79.923-2.133 1.385-4.03 1.385-1.897-.077-3.32-.539-4.11-1.539zm13.989-16.308h4.504l3.32 17.54h-3.636l-.632-3.693h-2.608l-.632 3.692h-3.715l3.399-17.538zm3.24 11.54l-.948-6.847-.949 6.846h1.897zm7.35-8.616h-2.687V13.23h9.404v2.846h-2.687v14.692h-4.03V16.154zm13.909-2.924h6.955v1.847h-4.505v5.77h3.635v1.768h-3.635v6.462h4.505v1.77h-7.034V13.23h.079zm9.009 0h1.739l5.137 11.616V13.231h2.055v17.538h-1.581l-5.216-12v12h-2.134V13.231zm11.302 0h6.954v1.847h-4.504v5.77h3.635v1.768h-3.635v6.462h4.504v1.77h-6.954V13.23zm9.009 0h3.635a6.452 6.452 0 014.031 1.078c.869.692 1.264 1.923 1.264 3.538 0 2.23-.711 3.616-2.212 4.077l2.528 8.77h-2.449l-2.371-8.232h-1.976v8.231h-2.529V13.231h.079zm3.477 7.54a3.523 3.523 0 002.292-.616c.474-.385.711-1.154.711-2.308a4.84 4.84 0 00-.237-1.692 1.975 1.975 0 00-.869-.923 3.69 3.69 0 00-1.739-.308h-1.106v5.77h.948v.076zm8.615 8.692A7.607 7.607 0 01170.057 25v-5.846a12.267 12.267 0 01.395-3.308 3.92 3.92 0 011.502-2 5.27 5.27 0 012.924-.692c1.66 0 2.845.385 3.556 1.23a5.773 5.773 0 011.107 3.847v.615h-2.371v-.538c.003-.645-.05-1.288-.158-1.923a1.533 1.533 0 00-.633-1 2.491 2.491 0 00-1.501-.385 2.417 2.417 0 00-1.581.461 1.734 1.734 0 00-.632 1.231 14.024 14.024 0 00-.158 2.077v6.539a6.816 6.816 0 00.474 2.923c.316.615.949.846 1.897.846.374.045.754-.018 1.092-.182.337-.165.617-.422.805-.741a6.922 6.922 0 00.553-3.077v-1.23h-2.292v-1.77h4.584v8.692h-1.581l-.237-2a3.143 3.143 0 01-1.226 1.658 3.287 3.287 0 01-2.014.573 4.047 4.047 0 01-1.899-.352 3.928 3.928 0 01-1.499-1.186zm13.514-4.847l-3.873-11.307h2.371l2.766 8.461 2.687-8.461H191l-3.872 11.307v6.154h-2.371v-6.154h-.079z"/></g></symbol><symbol id="icon-logo_tablet"><g clip-path="url(#clip0)"><path d="M51.582 20.854a22.231 22.231 0 00-6.936-9.09 21.96 21.96 0 00-10.503-4.396A21.887 21.887 0 0022.865 8.83a22.083 22.083 0 00-9.058 6.934 22.354 22.354 0 00-4.43 10.564 22.432 22.432 0 001.373 11.386 22.238 22.238 0 006.813 9.184 21.965 21.965 0 0010.442 4.54 99.88 99.88 0 01-1.456-5.951 27.756 27.756 0 004.1 2.215s.104 1.877.241 3.971c1.54.027 3.08-.11 4.592-.408a1.874 1.874 0 010-.66c.25-1.625.939-4.553 1.077-6.439a13.212 13.212 0 002.498-3.224l-.052.383c-.474 3.701-1.464 7.655-2.067 8.75a4.845 4.845 0 01-.715.999 22.006 22.006 0 008.563-4.141 22.237 22.237 0 006.047-7.386 22.45 22.45 0 00.749-18.694zm-1.266 3.293c-.38.374-1.163.626-1.293-.504-.129-1.13-.163-1.92-.163-1.92s-1.663-2.98-2.283-3.015c-.62-.035-5.022 3.015-6.185 4.344-1.008 1.121-1.206 1.043-1.206 3.015 0 1.486.19 7.1.086 11.392l-7.02 1.886a54.724 54.724 0 01-6.72 1.494l-.861-5.066h-.12L22.335 24.33s-3.282-1.252-4.488-1.59a3.213 3.213 0 00-3.445.547c-.472.417-.85.931-1.107 1.509a4.437 4.437 0 00-.384 1.836c.182.404.321.826.414 1.26.043.417-1.034.374-1.723.374-.69 0-.793-1.251-.25-2.72a19.929 19.929 0 011.568-3.25 10.312 10.312 0 011.783-2.51s.12-.296 1.077-.21c.956.088 6.271.374 6.271.374l.043-1.972a121.95 121.95 0 0117.436-1.165v1.59a19.265 19.265 0 017.011-1.737.778.778 0 01.664.339c.293.373 2.076 2.607 2.283 2.928a24.365 24.365 0 011.576 2.607 5.44 5.44 0 01-.75 1.599v.008z" fill="#FDC305"/><path d="M48.636 18.83c.405.52.758.981.862 1.12a24.464 24.464 0 011.576 2.607 5.444 5.444 0 01-.74 1.547c-.38.373-1.164.625-1.293-.504-.13-1.13-.18-1.877-.18-1.877s-1.663-2.98-2.283-3.015c-.62-.035-5.023 3.015-6.186 4.344-1.008 1.121-1.206 1.043-1.206 3.015 0 1.304.147 5.779.112 9.758 1.56.174 3.851.609 4.54 1.634 0 0-.25-6.239 6.728-2.972 0 0 .241-8.506 9.872-6.325a37.712 37.712 0 00-11.802-9.333zm-9.071-2.016A79.248 79.248 0 0038.36 2.45s-.129-1.13-.749-.208a12.47 12.47 0 00-1.034 3.475 60.535 60.535 0 00-11.043.296c-.707-2.39-1.913-3.476-2.49-3.189-.577.287-.646 2.85-.646 2.85l-.284 12.304a121.956 121.956 0 0117.452-1.165z" fill="#F06351"/><path d="M39.065 40.943c.112-.93.172-2.163.207-3.527l-7.02 1.885a54.73 54.73 0 01-6.72 1.538l.957 4.345c0 .095 0 .19.06.286a27.764 27.764 0 004.1 2.216 36.485 36.485 0 005.927-3.589v.053a13.208 13.208 0 002.49-3.207z" fill="#E55645"/><path d="M27.566 14.094c-.043-.087.861.59 1.214.8.353.208.526.364.526.512 0 .148-.224.295-.534.295-.31 0-.793-.104-.862-.226-.069-.121.517 0 .81 0h.25a6.99 6.99 0 01-1.404-1.381zm6.46.096s-.861 1.112-.939 1.164c-.077.052-.146.295.164.252a6.911 6.911 0 001.051-.244c.095-.052.06-.173-.103-.156-.164.017-.586.043-.862.096l.732-1.104s.026-.104-.043-.009zm-2.704 5.308a1.98 1.98 0 00.938-.868c.242-.574 0-.791-.379-.87a2.095 2.095 0 00-1.507.296c-.336.322-.293.634 0 .869.29.23.61.423.948.573z" fill="#000"/><path d="M31.011 20.593a1.78 1.78 0 01-.396.522 1.486 1.486 0 01-.861.33 1.866 1.866 0 01-1.327-.383 1.725 1.725 0 01-.456-.39.862.862 0 00-.31-.218s.645 3.572 2.213 4.145c1.568.573 1.86-.66 1.904-.99a4.925 4.925 0 00-.706-2.816c0-.26-.018-.087-.06-.2z" fill="#F06351"/><path d="M29.547 21.584a2.998 2.998 0 01-2.024-1.243.131.131 0 010-.173.122.122 0 01.086-.037.121.121 0 01.086.037 2.785 2.785 0 001.817 1.138 1.806 1.806 0 001.413-.87l.12-.164.087.191s.327.66.861.695c.534.035.913-.365 1.404-1.12a.123.123 0 01.172-.035.125.125 0 01.035.173c-.574.852-1.117 1.26-1.628 1.225a1.328 1.328 0 01-.965-.634 1.954 1.954 0 01-1.464.817z" fill="#000"/><path d="M31.235 33.28c1.784 0 3.23-1.46 3.23-3.259 0-1.8-1.446-3.258-3.23-3.258s-3.23 1.458-3.23 3.258 1.446 3.258 3.23 3.258z" fill="#FDC305"/><path d="M35.516 27.37l-2.696 1.14.99-4.893-6.46 8.48 2.697-1.138-.991 4.901 6.46-8.49zm-6.365 3.33l3.583-4.701-.698 3.476 1.723-.713-3.61 4.71.699-3.476-1.697.704zm-1.206-1.278a.969.969 0 00.965-.974.97.97 0 00-.965-.973.97.97 0 00-.965.973.97.97 0 00.965.974zm5.616 3.528c.376 0 .68-.308.68-.687a.684.684 0 00-.68-.687.684.684 0 00-.68.687c0 .379.304.686.68.686zm.827-1.886a.303.303 0 00.302-.304.303.303 0 00-.302-.305.303.303 0 00-.301.305c0 .168.135.304.301.304z" fill="#111"/><path d="M39.522 18.386a49.73 49.73 0 00-4.384 4.527 27.555 27.555 0 01-4.574 4.258c-.19-.46-1.405-1.32-1.405-1.32s-2.704-1.869-4.48-3.337a27.578 27.578 0 01-2.704-2.607l-1.723-.096a19.507 19.507 0 0010.337 7.681c.741-.121 2.826-1.624 4.385-2.85a49.885 49.885 0 005.169-5.135 5.566 5.566 0 00.982-1.738c-.982.33-1.603.617-1.603.617zM22.337 24.33s-3.282-1.252-4.488-1.59a3.214 3.214 0 00-3.446.547c-.472.417-.85.931-1.107 1.509a4.439 4.439 0 00-.383 1.836c.182.404.32.826.413 1.26.043.417-1.033.374-1.723.374-.689 0-.792-1.251-.25-2.72a20.01 20.01 0 011.568-3.25C8.227 24.764 0 30.464 0 30.464a39.136 39.136 0 017.055.209c4.523.46 4.307 4.058 4.307 4.058a33.033 33.033 0 014.85-.965c1.826-.121 1.956 1.842 1.956 1.842l.456 3.354a15.804 15.804 0 012.283-2.05 5.189 5.189 0 013.773-1.13L22.337 24.33z" fill="#F06351"/><path d="M73.79 36.495a7.25 7.25 0 01-1.206-4.51v-6.517a7.364 7.364 0 011.189-4.553c.798-1.037 2.162-1.553 4.091-1.547 1.93.006 3.236.46 3.92 1.364a5.875 5.875 0 011.145 3.902v1.53h-3.566v-1.66a8.768 8.768 0 00-.112-1.304 1.464 1.464 0 00-.405-.825 1.341 1.341 0 00-.99-.322 1.248 1.248 0 00-1.292.652 4.79 4.79 0 00-.293 1.911v8.273c-.04.654.076 1.31.336 1.911a1.265 1.265 0 001.25.634c.241.035.488-.008.705-.124.216-.115.391-.297.5-.519a5.114 5.114 0 00.267-1.902V31.15h3.566v1.503a6.342 6.342 0 01-1.06 4.006c-.758.955-2.067 1.425-3.928 1.425-1.86 0-3.316-.522-4.117-1.59zM87.788 19.62h4.083l3.446 18.247h-3.394l-.612-4.031h-2.86l-.689 4.005h-3.445l3.471-18.22zm3.144 11.922l-1.085-7.334-1.077 7.334h2.162zm7.03-9.176H95.17V19.62h9.234v2.746h-2.757V37.84h-3.695l.008-15.475z" fill="#111"/><path d="M111.65 19.62h7.003v1.894h-4.479v6.022h3.635v1.799h-3.635v6.682h4.522v1.824h-7.046v-18.22zm9.079 0h1.723l5.168 12.104V19.62h2.102v18.247h-1.611l-5.168-12.442V37.84h-2.136l-.078-18.22zm11.776 0h6.994v1.894h-4.479v6.022h3.67v1.799h-3.635v6.682h4.496v1.824h-7.046v-18.22zm9.071 0h3.635a5.994 5.994 0 014.023 1.138c.861.756 1.283 1.99 1.283 3.702 0 2.317-.744 3.733-2.231 4.249l2.584 9.132h-2.446l-2.369-8.55H144.1v8.55h-2.524v-18.22zm3.445 7.82c.83.081 1.66-.154 2.326-.66a3.115 3.115 0 00.706-2.355 5.12 5.12 0 00-.249-1.738 1.645 1.645 0 00-.862-.938 4.068 4.068 0 00-1.766-.304h-1.111v6.03l.956-.035zm8.89 9.055a8.104 8.104 0 01-1.094-4.65v-6.082a11.857 11.857 0 01.431-3.475 3.894 3.894 0 011.499-2.094 5.056 5.056 0 012.894-.73c.657-.063 1.32.02 1.941.241a4.526 4.526 0 011.66 1.045 6.12 6.12 0 011.102 4.023v.678h-2.368v-.565a10.088 10.088 0 00-.155-2.016 1.742 1.742 0 00-.655-1.069 2.567 2.567 0 00-1.482-.356 2.158 2.158 0 00-1.559.486 2.229 2.229 0 00-.663 1.287 13.042 13.042 0 00-.147 2.163v6.769a6.575 6.575 0 00.509 3.006 2.434 2.434 0 001.944.912 2.426 2.426 0 001.906-.99 7.111 7.111 0 00.526-3.171V30.62h-2.292v-1.799h4.566v9.02h-1.56l-.249-2.095a3.211 3.211 0 01-1.206 1.725 3.158 3.158 0 01-2.007.595 3.985 3.985 0 01-1.971-.328 4.02 4.02 0 01-1.57-1.244zm13.8-5.084l-3.902-11.79h2.343l2.765 8.793 2.722-8.794h2.369l-3.876 11.791v6.43h-2.412l-.009-6.43z" fill="#444"/></g></symbol><symbol id="icon-mail"><path fill="none" stroke-width="1.3" d="M1.65 5.72v8m17-8v8M1 13.07h18m-18-12h18m-.65 1.832L10 9.397 1.65 2.902V1.37h16.7v1.532z"/></symbol><symbol id="icon-mobile-menu" viewBox="0 0 24 18"><path d="M0 16h24v2H0zm0-8h24v2H0zm0-8h24v2H0z"/></symbol><symbol id="icon-phone"><g clip-path="url(#clip0)"><path d="M17.9 9.4H9.4v1.2h8.5l-2.1 2.1.9.9 3.1-3.1a.75.75 0 000-.9l-3.1-3.1-.9.9 2.1 2zm-9.8 10v-6.2a.65.65 0 00-.6-.6H3.1a1.22 1.22 0 001.2 1.2h2.5v5H3.1a1.789 1.789 0 01-1.9-1.7v-14a1.77 1.77 0 011.7-1.8h3.9v5H4.4a1.22 1.22 0 00-1.2 1.2h4.4a.65.65 0 00.6-.6V.6a.86.86 0 00-.7-.6H3.1A3 3 0 000 2.9v13.9a2.89 2.89 0 002.9 3.1h4.6a.5.5 0 00.6-.5z"/></g></symbol><symbol id="icon-plus-mobile" viewBox="0 0 30 30"><path fill="#231f20" d="M30 14H16V0h-2v14H0v2h14v14h2V16h14z"/></symbol><symbol id="icon-plus"><path stroke="#D3D3D3" d="M15 0v30m15-15H0"/></symbol><symbol id="icon-right-arrow-long" viewBox="0 0 24.2 11"><path class="st0" d="M17.6 0l6.6 5.5-6.6 5.5V6.6H0V4.4h17.6z"/></symbol><symbol id="icon-right-arrow-verylong" viewBox="0 0 32 11"><path class="st0" d="M25.4 0L32 5.5 25.4 11V6.6H0V4.4h25.4z"/></symbol><symbol id="icon-tick"><path d="M7 11.718L1.3 5.27.25 6.457 7 14.094 18.25 1.366 17.2.094 7 11.718z" fill="#68B738"/></symbol><symbol id="icon-vk"><path d="M.07 3.993c0-.622.423-.957 1.27-1.006l3.26.018c.22 0 .365.091.438.274.336.915.711 1.704 1.127 2.369.416.664.96 1.43 1.63 2.295a.3.3 0 00.285.165.276.276 0 00.24-.128l.067-.201.021-3.165c0-.219-.062-.365-.186-.438-.124-.074-.353-.128-.689-.165-.263-.037-.394-.17-.394-.402a.21.21 0 01.022-.11c.306-.793 1.182-1.189 2.626-1.189l1.226-.018c.554 0 1.014.116 1.379.347.364.232.547.598.547 1.098v4.151a.562.562 0 00.284.092c.22 0 .409-.11.57-.33 1.604-1.877 2.472-3.133 2.604-3.767a.29.29 0 01.044-.092c.102-.182.27-.34.503-.475.233-.134.438-.226.613-.274a.507.507 0 01.197-.037h3.392l.219.018c.292 0 .518.116.678.348a.63.63 0 01.12.238c.022.085.037.17.044.256.008.085.011.134.011.146v.128c-.102.5-.36 1.033-.777 1.6-.415.567-.944 1.18-1.586 1.838-.642.659-1.044 1.092-1.204 1.299-.131.146-.197.28-.197.402 0 .098.058.208.175.33l3.195 3.365a.939.939 0 01.263.64c0 .28-.131.512-.394.695a1.826 1.826 0 01-.941.31l-.372.02h-3.327a.794.794 0 00-.087.008.802.802 0 01-.088.01c-.32 0-.62-.116-.897-.348-.102-.098-.788-.817-2.057-2.158a1.106 1.106 0 00-.307-.238c-.058.195-.135.475-.23.841a63.68 63.68 0 01-.207.787l-.066.31c-.146.427-.452.684-.92.769l-.306.018H9.743c-1.21 0-2.418-.463-3.622-1.39-1.203-.927-2.287-2.124-3.25-3.594-.963-1.469-1.86-3.18-2.691-5.13a1.254 1.254 0 01-.11-.53zM13.223 8.73a1.66 1.66 0 01-.831-.21c-.248-.14-.372-.333-.372-.577V3.737c0-.244-.073-.418-.22-.522-.145-.103-.4-.155-.765-.155l-1.248.036c-.627 0-1.101.092-1.422.275.642.256.963.67.963 1.243v3.22c-.03.304-.175.557-.438.758a1.405 1.405 0 01-.875.302c-.438 0-.774-.177-1.007-.53C5.87 6.925 5.024 5.559 4.469 4.267l-.197-.476-2.91-.018c-.19 0-.296.01-.318.028-.022.018-.033.07-.033.155 0 .11.015.226.044.348l.46 1.024c1.225 2.646 2.556 4.73 3.994 6.255 1.437 1.524 2.848 2.286 4.234 2.286h2.189c.088 0 .153-.021.197-.064.044-.043.08-.125.11-.247l.043-.183.416-1.61c.117-.219.219-.365.306-.438a.86.86 0 01.57-.201c.35 0 .707.176 1.072.53l1.86 1.975c.117.159.24.238.372.238h3.611c.438 0 .657-.091.657-.274a.312.312 0 00-.066-.183l-3.173-3.31c-.248-.257-.372-.531-.372-.824 0-.292.116-.573.35-.841.19-.244.558-.65 1.105-1.216a28.203 28.203 0 001.434-1.591c.408-.494.678-.942.81-1.345l.065-.237a.243.243 0 01-.022-.12c0-.054-.007-.1-.022-.137H17.82a1.199 1.199 0 00-.525.33l-.131.347c-.365.841-1.32 2.14-2.867 3.896a1.672 1.672 0 01-1.073.366z"/></symbol></svg>